<?xml version="1.0" standalone="no"?>
<!DOCTYPE svg PUBLIC "-//W3C//DTD SVG 20010904//EN"
 "http://www.w3.org/TR/2001/REC-SVG-20010904/DTD/svg10.dtd">
<svg version="1.0" xmlns="http://www.w3.org/2000/svg"
 width="600.000000pt" height="600.000000pt" viewBox="0 0 600.000000 600.000000"
 preserveAspectRatio="xMidYMid meet">
<metadata>
Created by potrace 1.11, written by Peter Selinger 2001-2013
</metadata>
<g transform="translate(0.000000,600.000000) scale(0.100000,-0.100000)"
fill="#000000" stroke="none">
<path d="M2258 5185 c-2 -2 -57 -6 -123 -10 -66 -3 -138 -8 -160 -10 -22 -3
-67 -7 -100 -10 -194 -17 -427 -52 -610 -90 -66 -14 -131 -28 -145 -31 -36 -7
-152 -41 -245 -71 -236 -76 -348 -165 -301 -238 16 -24 15 -28 -10 -73 -84
-150 -240 -459 -292 -577 -150 -345 -192 -512 -217 -857 -4 -51 -14 -96 -30
-129 -27 -59 -27 -137 1 -191 13 -26 16 -61 16 -178 -1 -80 -4 -175 -8 -212
-4 -38 -2 -85 4 -110 6 -24 13 -92 17 -153 3 -60 8 -144 10 -185 9 -158 17
-265 21 -271 2 -4 -6 -15 -17 -25 -41 -37 -63 -95 -63 -169 -1 -109 27 -135
206 -188 69 -21 118 -34 148 -42 137 -32 139 -33 146 -73 9 -52 47 -124 85
-161 59 -59 142 -88 255 -89 151 -1 238 36 304 129 l35 49 70 -6 c39 -3 86 -8
105 -10 214 -22 782 -21 980 1 19 2 58 6 85 9 28 2 70 7 95 10 25 3 61 8 80
10 50 6 111 16 136 21 12 3 39 7 60 10 95 15 303 70 469 124 99 33 181 58 183
57 1 -2 9 -50 17 -107 35 -252 79 -362 175 -446 76 -66 180 -95 311 -88 112 6
131 10 183 35 106 51 185 167 237 348 10 34 18 63 17 65 0 1 3 18 6 37 3 19 8
52 11 73 3 20 7 52 10 70 3 17 7 65 9 105 2 40 5 75 7 77 4 3 351 174 663 324
81 40 149 71 151 69 1 -2 5 -26 9 -55 3 -29 17 -88 31 -132 48 -151 152 -220
314 -208 96 7 136 23 186 73 96 98 145 311 138 598 -2 85 1 106 17 134 14 23
21 60 25 130 3 53 8 124 10 157 26 361 26 972 -1 1130 -2 17 -6 48 -9 70 -14
147 -67 377 -128 562 -21 61 -30 104 -24 106 38 12 -131 127 -280 190 -141 60
-414 142 -565 171 -13 2 -30 7 -38 10 -8 3 -28 8 -45 10 -16 2 -64 11 -105 19
-68 14 -100 20 -180 33 -14 3 -47 9 -75 14 -27 5 -71 11 -96 15 -43 5 -59 8
-134 20 -40 6 -89 13 -147 20 -27 3 -69 7 -95 10 -27 3 -61 8 -78 10 -82 11
-150 18 -295 31 -36 3 -78 7 -95 9 -16 2 -70 6 -120 10 -49 3 -108 8 -130 10
-22 3 -76 7 -120 10 -44 3 -109 8 -145 11 -74 6 -807 14 -812 9z"/>
</g>
</svg>
